<svg version="1.2" xmlns="http://www.w3.org/2000/svg" viewBox="0 0 540 540" width="540" height="540">
	<style>
		.s0 { fill: #ffffff } 
	</style>
	<path id="&lt;Path&gt;" class="s0" d="m159.94 290.92c-4.83-12.77-7.48-26.6-7.48-41.03 0-64.17 52.21-116.38 116.38-116.38 64.17 0 116.37 52.21 116.37 116.38 0 14.43-2.65 28.26-7.48 41.03h4.53c4.65-12.81 7.19-26.63 7.19-41.03 0-66.51-54.11-120.62-120.61-120.62-66.51 0-120.62 54.11-120.62 120.62 0 14.4 2.54 28.22 7.2 41.03z"/>
	<path id="&lt;Path&gt;" class="s0" d="m276.2 148.23c2.47 0.29 4.96 0.46 7.39 1.02 3.26 0.76 6.35 1.92 9.05 3.97 2.79 2.11 4.41 5.02 5.51 8.24 1.87 5.49 2.92 11.16 3.48 16.92q0.7 7.11 0.58 14.26c-0.02 1.33-0.09 2.67-0.16 4-0.1 2.2-0.84 2.79-2.98 2.23-3.98-1.05-7.94-2.17-11.91-3.24-1.6-0.43-3.22-0.8-4.83-1.2-2.31-0.58-3.02-1.4-3.36-3.78-0.64-4.51-1.95-8.79-4.35-12.7-2.75-4.5-6.57-7.86-11.2-10.27-7.78-4.07-16.02-6.77-24.78-7.62-4.73-0.46-9.45-0.09-14.1 0.94q-0.53 0.12-1.06 0.21c-0.44 0.07-0.8-0.1-1-0.48-0.23-0.43-0.18-0.86 0.18-1.19q0.44-0.4 0.95-0.72c5.32-3.54 11.35-5.31 17.43-6.92 7.06-1.87 14.23-3.12 21.53-3.53 0.21-0.02 0.42-0.09 0.63-0.14q6.5 0 13 0z"/>
	<path id="&lt;Path&gt;" class="s0" d="m173.8 285.39q0.01-4 0-8.01c0-0.74-0.26-1.33-1.05-1.58-1.21-0.39-2.47-0.2-2.96 0.58-0.38 0.61-0.44 0.73-0.89-0.03-1.86-3.09-1.84-6.62-2.36-9.99-0.98-6.21-1.3-12.48-1.13-18.77 0.18-6.69 0.88-13.31 3.36-19.62 3.73-9.46 10.32-16.41 18.94-21.56 8.37-5 17.48-8.04 27-9.93 7.83-1.56 15.75-2.39 23.74-2.65 9.66-0.32 19.25 0.34 28.82 1.52 1.72 0.22 3.44 0.43 5.15 0.72 2.33 0.39 2.87 1.25 2.6 3.59-0.78 6.68-3.94 12.2-8.17 17.25-4.46 5.32-9.83 9.55-15.6 13.3-4.36 2.84-8.74 5.64-12.99 8.63-0.21 0.15-0.41 0.31-0.64 0.4-0.68 0.28-1.09 0.15-1.16-0.7-0.12-1.51-0.53-1.9-2.03-1.92q-3.95-0.06-7.9-0.05c-1.48 0-2.01 0.46-2.09 1.86-0.04 0.76-0.37 1.02-1.07 1.02q-2.22-0.03-4.44 0c-1.67 0.02-2.04 0.39-2.05 2.05q-0.02 6.45 0.01 12.89c0.01 0.86-0.23 1.49-0.88 2.07q-6.81 6.05-13.2 12.52c-0.4 0.4-0.81 0.79-1.41 0.59-0.67-0.22-0.43-0.84-0.44-1.3-0.03-1.88-0.51-2.42-2.39-2.3-2.28 0.15-4.55 0.06-6.82 0.12-1.51 0.05-1.92 0.46-1.99 1.95-0.07 1.53-0.08 1.43-1.56 1.6-4.62 0.54-4.66 1.35-4.2 5.3 0.13 1.11 0.42 2.19 0.59 3.3 0.08 0.56 0.43 0.9 0.86 1.18 0.85 0.57 0.84 1.17 0.3 1.99-3.21 4.89-6.38 9.8-9.57 14.7-0.61 0.92-0.76 0.9-1.3-0.02-0.75-1.26-1.16-2.58-1.09-4.1 0.11-2.19 0.03-4.4 0.03-6.6q-0.01 0-0.02 0z"/>
	<path id="&lt;Path&gt;" class="s0" d="m232.62 161.16c11.41 0.77 23.34 4.33 33.49 12.83 4.99 4.18 7.59 9.61 8.6 15.92 0.29 1.78-0.47 2.49-2.27 2.28-8.35-0.95-16.69-1.9-25.13-1.98-14.57-0.15-28.89 1.3-42.74 6.15-8.83 3.1-17.08 7.23-24.09 13.58q-4.43 4.02-7.86 8.92-0.15 0.22-0.3 0.45c-0.42 0.59-0.93 1.39-1.68 1.07-0.64-0.27-0.12-1.11-0.02-1.66 0.82-4.3 2.55-8.26 4.53-12.13 4.36-8.48 9.57-16.39 15.89-23.56 6.25-7.08 13.08-13.47 21.71-17.63 5.78-2.78 11.88-4.21 19.87-4.24z"/>
	<path id="&lt;Path&gt;" class="s0" d="m369.87 268.95c-0.01 6.18-1.5 12.07-3.53 17.85-0.58 1.66-1.24 3.31-1.84 4.97-0.25 0.69-0.57 0.84-1.16 0.29q-3.86-3.64-7.74-7.26c-0.36-0.34-0.5-0.77-0.59-1.24q-0.95-4.72-1.9-9.44c-0.16-0.8-0.31-1.71-1.26-1.82-1.06-0.13-2.18-0.04-3.07 0.7-0.5 0.42-0.42 1.06-0.35 1.63q0.46 4.35 1 8.7c0.21 1.64 0.15 1.7-1.52 1.49-1.33-0.17-2.62-0.42-3.89-0.88-0.66-0.25-1.01-0.61-1.08-1.3-0.8-7.5-2.67-14.74-4.92-21.92-0.45-1.41-0.1-3.07-1.47-4.16-2.37-6.97-5.05-13.83-6.69-21.02-1.32-5.84-1.92-11.74-1.88-17.71 0.01-0.67 0.07-1.32 0.74-1.69 0.63-0.34 1.19-0.08 1.71 0.28 6.18 4.26 12.54 8.27 18.2 13.25 6.41 5.64 12.1 11.88 16.17 19.47 2.79 5.21 4.52 10.75 4.91 16.68 0.04 0.54 0.12 1.07 0.15 1.61 0.03 0.51 0.01 1.01 0.01 1.52z"/>
	<path id="&lt;Path&gt;" class="s0" d="m305.31 198.25c0.21-5.14 0.13-10.41-0.35-15.66-0.85-9.29-3.02-18.21-7.87-26.32-0.26-0.43-0.56-0.84-0.82-1.27-0.66-1.08-0.16-2.03 1.12-2.07 0.46-0.01 0.94 0.06 1.39 0.17 4.56 1.07 8.88 2.81 13.07 4.85 11.65 5.65 22.34 12.69 31.39 22.04 2.74 2.84 5.11 5.98 7.55 9.06 0.3 0.37 0.54 0.78 0.64 1.25 0.21 0.99-0.45 1.72-1.46 1.6q-0.53-0.08-1.05-0.27c-6.35-2.2-11.94-0.79-16.84 3.63-3.32 3.01-5.13 6.92-6.38 11.13q-0.1 0.37-0.19 0.73c-0.45 1.65-1.33 2.12-2.92 1.46-2.17-0.9-4.31-1.86-6.45-2.81-2.88-1.27-5.71-2.63-8.63-3.79-1.75-0.69-2.35-1.87-2.2-3.73z"/>
	<path id="&lt;Path&gt;" class="s0" d="m279.56 260.1q0 14.67 0 29.34c0 0.25 0.09 0.62-0.25 0.6-0.48-0.03-0.31-0.49-0.31-0.78q0-6.93 0-13.86-0.01-12.89 0.02-25.78c0.01-1.2-0.2-2.16-1.32-2.85-0.88-0.54-0.95-1.57-1.07-2.5-0.06-0.5-0.02-1.01-0.06-1.52-0.06-0.94-0.59-1.44-1.52-1.5-0.5-0.03-1.01-0.02-1.52-0.02q-11.64 0-23.29 0c-2.14 0.01-2.43 0.29-2.43 2.45 0 1.32-0.26 2.46-1.44 3.31-1 0.72-1.09 1.89-1.09 3.04q0 12.18 0 24.37 0.01 10.56 0 21.12c0 0.42 0.22 1.05-0.52 1.08-0.69 0.02-0.89-0.52-0.91-1.11q-0.02-0.6-0.01-1.19 0.02-26.1 0.03-52.2c0-1.03 0.18-2.08-1.09-2.69-0.54-0.27 0.15-0.56 0.38-0.72q3.28-2.2 6.58-4.38c5.75-3.81 11.63-7.43 16.85-11.98 6.35-5.53 10.73-12.23 12.04-20.7 0.08-0.54 0.11-1.08 0.22-1.61 0.27-1.4 0.8-1.87 2.23-1.79 2.49 0.13 4.93 0.65 7.36 1.19 3.67 0.82 7.25 1.93 10.81 3.14 1.97 0.66 2.76 1.89 2.54 3.96-0.63 5.84-1.3 11.68-1.91 17.52-0.11 1.02-0.52 1.41-1.59 1.39-3.35-0.07-6.71-0.01-10.07-0.04-0.94-0.01-1.63 0.24-1.95 1.18-0.19 0.55-0.66 0.74-1.16 0.87-1.05 0.27-2.09 0.57-3.15 0.8-1.95 0.42-2.44 1-2.44 3.05q0 3.52 0.01 7.04 0 10.88 0 21.77 0.01 0 0.03 0z"/>
	<path id="&lt;Path&gt;" class="s0" d="m372.28 250.87c0.15 3.08-0.35 6.18-0.68 9.3-0.05 0.56-0.23 1.11-0.91 1.17-0.76 0.07-0.93-0.53-1.1-1.1-1.21-4.04-2.25-8.13-4.02-11.99-3.71-8.11-9.1-14.95-15.67-20.9-5.91-5.35-12.41-9.9-19.05-14.28-2.49-1.64-3.01-2.77-2.22-5.65 1.39-5.05 4.05-9.38 8.33-12.44 6.77-4.85 15.86-3.12 20.46 3.83 2.77 4.2 4.72 8.84 6.61 13.49q5.65 13.85 7.55 28.69c0.41 3.25 0.83 6.51 0.7 9.88z"/>
	<path id="&lt;Path&gt;" class="s0" d="m308.88 261.64q0-15 0-30c0-2.52-0.33-2.79-2.74-3.46-2.68-0.75-2.39-0.19-2.12-3.05 0.51-5.35 1.15-10.68 1.17-16.07q-0.01-0.81 0-1.62c0.06-1.82 0.96-2.45 2.62-1.73 3.41 1.47 6.79 3.02 10.19 4.54 1.22 0.54 2.4 1.2 3.66 1.63 2.19 0.75 2.94 2.32 2.95 4.5q0.04 5.14 0.59 10.25c0.55 5.3 1.82 10.44 3.24 15.55 1.3 4.66 2.9 9.22 4.58 13.76 0.45 1.21 0.41 1.27-0.88 1.28q-10.02 0-20.05 0.01c-2.35 0-2.76 0.55-2.15 2.79 0.2 0.75-0.11 1.49-0.11 2.24q0.04 14.84 0 29.68c0 0.55 0.39 1.58-0.51 1.57-0.78-0.01-0.43-1-0.43-1.55q-0.03-15.16-0.02-30.32 0 0 0.01 0z"/>
	<path id="&lt;Path&gt;" class="s0" d="m255.95 140.36l12.93-36.2-34.72-27.34 43.22 0.37 13.12-37.31h-3.89l-16.25 26.23h-67.97l55.8 39.16-24.03 63.16 55.42-42.95 29.32 14.88-28.4-24.38z"/>
	<path id="&lt;Path&gt;" class="s0" d="m281.44 83.84l-25.49-0.37 21.79 17.05-10.34 24.96 23.1-18.37 21.6 16.62-11.65-25.11 23.84-15.15h-26.97l-6.82-25.86z"/>
	<path id="&lt;Compound Path&gt;" class="s0" d="m263.32 130.89l12.36-29.82-24.74-19.37 29.3 0.43 10.48-30.34 7.91 29.98h31.49l-27.5 17.48 13.93 30.05-26.03-20.03zm-2.36-45.65l18.84 14.74-8.32 20.09 19-15.12 17.16 13.21-9.36-20.18 20.17-12.82h-22.44l-5.73-21.73-7.64 22.12z"/>
	<path id="&lt;Compound Path&gt;" class="s0" d="m206.93 356.03l-0.99-11.52h-5.96l-1.1 10.63q0 0.89-0.89 0.89h-7.85l8.05-68.04q0-0.89 0.99-0.89h8.74l7.75 67.84q0.1 0.5-0.2 0.79-0.3 0.3-0.79 0.3zm-6.16-20.06h4.87l-2.49-31.49z"/>
	<path id="&lt;Compound Path&gt;" class="s0" d="m239.01 346.89q0 2.89-0.79 4.62-0.8 1.74-2.24 2.78-1.44 1.05-3.47 1.39-2.04 0.35-4.52 0.35h-13.01v-68.93h11.22q2.38 0 4.67 0.19 2.28 0.21 4.37 1.89 2.28 1.69 2.73 4.02 0.45 2.34 0.45 4.92v9.54q0 2.18-0.05 3.57-0.05 1.4-0.1 2.74-0.05 1.34-0.15 1.93-0.4 1.69-1.14 2.68-0.75 1-1.64 1.54-0.9 0.55-1.74 0.75-0.84 0.2-1.44 0.3 2.28 0.49 3.43 1.09 1.14 0.6 1.94 1.49 1.28 1.69 1.39 4.02 0.09 2.34 0.09 6.41zm-9.23-47.38q0-3.18-1.29-4.07-1.3-0.9-3.88-0.9h-0.99v23.05h1.09q2.88-0.1 3.97-1.14 1.1-1.05 1.1-3.83zm0.69 31.12q0-1.8-0.35-2.9-0.34-1.09-1.09-1.59-0.74-0.5-1.79-0.65-1.04-0.15-2.33-0.15h-1.29v23.24h1.19q3.58 0 4.62-1.34 1.04-1.35 1.04-4.15z"/>
	<path id="&lt;Compound Path&gt;" class="s0" d="m248.15 356.03h-7.65v-68.93h7.65q0.99 0 1 0.99v66.95q-0.01 0.99-1 0.99z"/>
	<path id="&lt;Compound Path&gt;" class="s0" d="m274.37 346q-0.2 3.78-1.64 5.76-1.44 1.99-2.83 2.78-1.78 1.1-3.62 1.29-1.84 0.2-3.83 0.2h-11.52v-68.93h13.51q0.99 0 2.78 0.34 1.79 0.35 3.68 1.94 2.48 2.09 2.98 4.62 0.49 2.53 0.49 5.41zm-8.64-46.68q0-1.09-0.1-2.14-0.1-1.04-1.11-1.84-0.81-0.79-1.87-0.79-1.06 0-2.07 0h-1.01v54.04h0.61q0.6 0 1.26 0 0.66 0 1.26-0.1 2.12-0.5 2.58-1.84 0.45-1.34 0.45-3.13z"/>
	<path id="&lt;Compound Path&gt;" class="s0" d="m298.9 287.1q1 0 1 0.99v58.01q-0.2 5.56-3.44 8.24-3.24 2.69-8.43 2.69-5.69 0-8.73-2.74-3.04-2.73-3.04-8.19v-13.81q0-0.99 0.91-0.99h7.73v13.81q0.1 2.08 0.79 3.27 0.68 1.2 2.34 1.2 2.25 0 2.74-1.44 0.49-1.44 0.49-3.13v-57.91z"/>
	<path id="&lt;Compound Path&gt;" class="s0" d="m317.38 356.03l-0.99-11.52h-5.96l-1.09 10.63q0 0.89-0.9 0.89h-7.84l8.04-68.04q0-0.89 1-0.89h8.74l7.74 67.84q0.1 0.5-0.19 0.79-0.3 0.3-0.8 0.3zm-6.16-20.06h4.87l-2.48-31.49z"/>
	<path id="&lt;Compound Path&gt;" class="s0" d="m339.7 355.14l-6.03-48.28 0.5 48.18q0 0.99-0.99 0.99h-7.25v-67.94q0-0.99 0.99-0.99h9.83l6.26 48.57-0.59-47.58q-0.01-0.99 0.99-0.99h7.05v68.93h-9.78q-0.79 0-0.98-0.89z"/>
	<path id="&lt;Compound Path&gt;" class="s0" d="m189.47 417.98q0 2.88-0.79 4.62-0.8 1.74-2.24 2.78-1.44 1.04-3.47 1.39-2.04 0.35-4.52 0.35h-13.01v-68.94h11.22q2.38 0 4.67 0.2 2.28 0.2 4.37 1.89 2.28 1.69 2.73 4.02 0.45 2.34 0.45 4.92v9.54q0 2.18-0.05 3.57-0.05 1.39-0.1 2.73-0.05 1.34-0.15 1.94-0.4 1.69-1.14 2.68-0.75 1-1.64 1.54-0.9 0.55-1.74 0.75-0.84 0.2-1.44 0.29 2.28 0.5 3.43 1.1 1.14 0.59 1.93 1.49 1.29 1.69 1.4 4.02 0.09 2.33 0.09 6.41zm-9.23-47.38q0-3.18-1.29-4.08-1.3-0.89-3.88-0.89h-0.99v23.04h1.09q2.88-0.09 3.97-1.14 1.1-1.04 1.1-3.82zm0.69 31.11q0-1.79-0.35-2.89-0.34-1.1-1.09-1.6-0.74-0.5-1.79-0.64-1.04-0.15-2.33-0.16h-1.29v23.25h1.19q3.58 0 4.62-1.35 1.04-1.34 1.04-4.14z"/>
	<path id="&lt;Compound Path&gt;" class="s0" d="m205.07 427.12l-1-11.52h-5.96l-1.09 10.63q0 0.89-0.89 0.89h-7.85l8.05-68.04q0-0.9 0.99-0.9h8.74l7.75 67.85q0.1 0.49-0.2 0.79-0.3 0.3-0.79 0.3zm-6.16-20.06h4.87l-2.49-31.49z"/>
	<path id="&lt;Compound Path&gt;" class="s0" d="m227.42 379.35v-11.35q0-1.19-0.6-2.22-0.59-1.04-2.28-1.04-1.1 0-1.99 0.65-0.89 0.64-0.89 2.92v11.6q0 2.28 1.19 4.17 1.19 1.89 2.73 3.42 1.54 1.54 3.13 2.78 1.59 1.24 2.48 2.23 2.78 3.17 3.88 6.35 1.09 3.17 1.09 6.84v12.2q0 5.16-3.03 7.68-3.03 2.53-8.49 2.53-4.47 0-7.75-2.33-3.28-2.34-3.48-7.1v-16.89h7.65q0.99 0 0.99 0.99v14.7q0 1.3 0.75 2.24 0.74 0.94 2.13 0.94 1.1 0 1.99-0.59 0.9-0.6 0.9-2.98v-9.64q-0.01-3.67-1.2-6.35-1.19-2.69-3.77-4.97-1.79-1.59-3.48-3.23-1.69-1.64-3.03-3.43-1.34-1.79-2.13-3.72-0.8-1.94-0.8-4.22v-14.01q0-5.06 3.03-7.65 3.03-2.58 8.4-2.58 4.36 0 7.74 2.28 3.38 2.29 3.58 7.06v13.7h-7.75q-0.99 0-0.99-0.98z"/>
	<path id="&lt;Compound Path&gt;" class="s0" d="m238.54 427.12v-68.94h7.65q0.99 0 0.99 1v27.31l10.14-28.31h8.93l-12.71 35.37 12.42 33.57h-8.94l-9.84-26.52v25.53q0 0.99-0.99 0.99z"/>
	<path id="&lt;Compound Path&gt;" class="s0" d="m282.94 427.12h-16.79v-68.94h17.19v6.45q0 1-1.01 1h-7.53v24.04h7.84v6.44q0 1.01-1 1.01h-6.84v22.55h9.14v6.46q-0.01 0.99-1 0.99z"/>
	<path id="&lt;Compound Path&gt;" class="s0" d="m309.36 358.18v6.46q0 0.99-0.99 0.99h-8.05v61.49h-8.64v-61.49h-8.04q-1 0-1-0.99v-6.46z"/>
	<path id="&lt;Compound Path&gt;" class="s0" d="m332.41 417.98q0 2.88-0.8 4.62-0.79 1.74-2.23 2.78-1.45 1.04-3.48 1.39-2.04 0.35-4.52 0.35h-13.01v-68.94h11.22q2.39 0 4.67 0.2 2.29 0.2 4.37 1.89 2.29 1.69 2.73 4.02 0.45 2.34 0.45 4.92v9.54q0 2.18-0.05 3.57-0.05 1.39-0.1 2.73-0.05 1.34-0.15 1.94-0.4 1.69-1.14 2.68-0.74 1-1.64 1.54-0.89 0.55-1.74 0.75-0.84 0.2-1.44 0.29 2.29 0.5 3.43 1.1 1.14 0.59 1.94 1.49 1.29 1.69 1.39 4.02 0.09 2.33 0.1 6.41zm-9.24-47.38q0-3.18-1.29-4.08-1.3-0.89-3.88-0.89h-0.99v23.04h1.09q2.88-0.09 3.98-1.14 1.09-1.04 1.09-3.82zm0.69 31.11q0-1.79-0.34-2.89-0.35-1.1-1.1-1.6-0.74-0.5-1.78-0.64-1.05-0.15-2.34-0.16h-1.29v23.25h1.19q3.58 0 4.62-1.35 1.04-1.34 1.04-4.14z"/>
	<path id="&lt;Compound Path&gt;" class="s0" d="m348 427.12l-0.99-11.52h-5.96l-1.1 10.63q0 0.89-0.89 0.89h-7.85l8.05-68.04q0-0.9 0.99-0.9h8.74l7.75 67.85q0.1 0.49-0.2 0.79-0.29 0.3-0.79 0.3zm-6.16-20.06h4.87l-2.49-31.49z"/>
	<path id="&lt;Compound Path&gt;" class="s0" d="m373.23 427.12h-16.69v-68.94h8.65v61.49h9.03v6.46q0 0.99-0.99 0.99z"/>
	<path id="&lt;Compound Path&gt;" class="s0" d="m391.31 427.12h-16.69v-68.94h8.64v61.49h9.04v6.46q0 0.99-0.99 0.99z"/>
	<path id="&lt;Compound Path&gt;" class="s0" d="m254.8 473.5q0.99 0 0.99 1.39v13.41q0 5.26-3.13 8.09-3.13 2.83-8.59 2.83-5.37 0-8.54-2.48-3.18-2.48-3.38-8.44v-48.68q0-5.36 3.13-8.29 3.13-2.93 8.79-2.93 11.42 0 11.72 11.62v15.79h-7.65q-0.5 0-0.74-0.44-0.25-0.45-0.25-0.95v-13.8q0-0.8-0.1-1.64-0.1-0.84-0.4-1.54-0.3-0.7-0.89-1.14-0.6-0.45-1.69-0.45-1.99 0-2.68 1.44-0.7 1.44-0.6 3.22v46.7q0 1.69 0.5 3.13 0.49 1.43 2.68 1.43 1.69 0 2.38-1.14 0.7-1.14 0.8-3.33v-13.8z"/>
	<path id="&lt;Compound Path&gt;" class="s0" d="m273.77 498.23h-16.69v-68.94h8.64v61.49h9.04v6.46q0 0.99-0.99 0.99z"/>
	<path id="&lt;Compound Path&gt;" class="s0" d="m298.1 429.29q1 0 1 1v58.01q-0.2 5.96-3.38 8.44-3.18 2.48-8.54 2.48-5.67 0-8.7-2.73-3.03-2.73-3.02-8.19v-59.01h7.64q1 0 1 1v57.01q0 4.47 3.18 4.47 2.18 0 2.68-1.44 0.49-1.44 0.49-3.13v-57.91z"/>
	<path id="&lt;Compound Path&gt;" class="s0" d="m324.33 489.09q0 2.88-0.8 4.62-0.8 1.74-2.23 2.78-1.45 1.04-3.48 1.39-2.04 0.35-4.52 0.35h-13.01v-68.94h11.22q2.39 0 4.67 0.2 2.29 0.2 4.37 1.89 2.29 1.69 2.73 4.02 0.45 2.34 0.45 4.92v9.53q0 2.19-0.05 3.58-0.05 1.39-0.1 2.73-0.05 1.34-0.15 1.94-0.4 1.69-1.14 2.68-0.74 1-1.64 1.54-0.89 0.55-1.74 0.75-0.84 0.2-1.44 0.29 2.29 0.5 3.43 1.1 1.14 0.59 1.94 1.49 1.29 1.69 1.39 4.02 0.09 2.33 0.1 6.41zm-9.24-47.38q0-3.18-1.29-4.08-1.3-0.89-3.88-0.89h-0.99v23.04h1.09q2.88-0.09 3.98-1.14 1.09-1.04 1.09-3.82zm0.69 31.11q0-1.79-0.34-2.89-0.35-1.1-1.1-1.6-0.74-0.5-1.78-0.65-1.05-0.14-2.34-0.15h-1.29v23.25h1.19q3.58 0 4.62-1.35 1.04-1.34 1.04-4.14z"/>
	<g id="Layer 1">
	</g>
</svg>