<svg width="261" height="490" viewBox="0 0 261 490" fill="none" xmlns="http://www.w3.org/2000/svg">
<path d="M132.71 112.04C135.27 112.34 137.84 112.51 140.36 113.1C143.75 113.88 146.95 115.09 149.75 117.21C152.64 119.4 154.33 122.42 155.47 125.76C157.41 131.45 158.49 137.33 159.08 143.3C159.553 148.22 159.75 153.15 159.67 158.09C159.65 159.47 159.58 160.85 159.51 162.23C159.4 164.52 158.64 165.13 156.41 164.55C152.29 163.46 148.19 162.3 144.07 161.19C142.41 160.74 140.73 160.36 139.06 159.94C136.66 159.34 135.92 158.5 135.57 156.03C134.91 151.35 133.55 146.91 131.07 142.85C128.21 138.19 124.25 134.71 119.46 132.21C111.39 127.99 102.84 125.19 93.7601 124.3C88.8501 123.83 83.9601 124.22 79.1401 125.28C78.7734 125.367 78.4068 125.44 78.0401 125.5C77.5801 125.57 77.2101 125.4 76.9901 125C76.7601 124.56 76.8201 124.11 77.1901 123.76C77.4967 123.493 77.8234 123.247 78.1701 123.02C83.6801 119.35 89.9401 117.52 96.2401 115.85C103.56 113.91 111 112.61 118.57 112.18C118.79 112.17 119.01 112.09 119.22 112.04C123.72 112.04 128.217 112.04 132.71 112.04Z" fill="#F89709"/>
<path d="M26.5299 254.26C26.5299 251.493 26.5266 248.727 26.5199 245.96C26.5199 245.19 26.2499 244.58 25.4399 244.32C24.1799 243.91 22.8699 244.11 22.3699 244.92C21.9699 245.55 21.9099 245.68 21.4399 244.89C19.5199 241.68 19.5399 238.03 18.9899 234.53C17.9799 228.1 17.6399 221.59 17.8199 215.07C18.0099 208.13 18.7299 201.27 21.3099 194.73C25.1799 184.91 32.0099 177.71 40.9399 172.37C49.6199 167.18 59.0699 164.03 68.9399 162.07C77.0699 160.46 85.2699 159.59 93.5599 159.32C103.57 159 113.52 159.68 123.45 160.9C125.23 161.12 127.01 161.34 128.78 161.64C131.2 162.06 131.76 162.94 131.48 165.37C130.67 172.29 127.39 178.02 123 183.25C118.38 188.77 112.82 193.15 106.83 197.05C102.32 199.99 97.7699 202.9 93.3599 206C93.1399 206.15 92.9299 206.31 92.6899 206.41C91.9899 206.7 91.5699 206.57 91.4999 205.69C91.3699 204.12 90.9399 203.72 89.3999 203.69C86.6666 203.65 83.9332 203.633 81.1999 203.64C79.6699 203.64 79.1099 204.12 79.0299 205.57C78.9899 206.35 78.6499 206.63 77.9199 206.62C76.3866 206.607 74.8532 206.607 73.3199 206.62C71.5899 206.65 71.1999 207.04 71.1999 208.76C71.1799 213.213 71.1832 217.667 71.2099 222.12C71.2099 223.01 70.9699 223.67 70.2899 224.27C65.5832 228.45 61.0199 232.777 56.5999 237.25C56.1899 237.67 55.7699 238.07 55.1399 237.86C54.4499 237.63 54.6899 236.99 54.6899 236.51C54.6499 234.56 54.1599 234 52.1999 234.13C49.8499 234.28 47.4899 234.19 45.1299 234.25C43.5699 234.3 43.1499 234.73 43.0699 236.27C42.9999 237.86 42.9899 237.76 41.4499 237.94C36.6699 238.49 36.6299 239.34 37.0999 243.43C37.2299 244.58 37.5299 245.7 37.7099 246.85C37.7999 247.43 38.1599 247.79 38.5999 248.08C39.4899 248.66 39.4799 249.29 38.9199 250.14C35.5899 255.21 32.2999 260.3 28.9899 265.38C28.3599 266.34 28.2099 266.31 27.6399 265.36C26.8599 264.05 26.4399 262.69 26.5099 261.11C26.6199 258.83 26.5399 256.55 26.5399 254.26C26.5332 254.26 26.5299 254.26 26.5299 254.26Z" fill="#F89709"/>
<path d="M87.52 125.45C99.35 126.24 111.72 129.93 122.24 138.75C127.41 143.08 130.11 148.72 131.16 155.26C131.45 157.1 130.67 157.84 128.81 157.63C120.15 156.63 111.5 155.65 102.75 155.57C87.63 155.42 72.78 156.92 58.43 161.95C49.27 165.16 40.72 169.45 33.45 176.03C30.39 178.81 27.6733 181.89 25.3 185.27C25.1933 185.43 25.0867 185.587 24.98 185.74C24.55 186.36 24.02 187.19 23.25 186.86C22.58 186.57 23.12 185.7 23.23 185.13C24.07 180.68 25.86 176.56 27.92 172.56C32.44 163.76 37.84 155.55 44.39 148.13C50.88 140.78 57.96 134.16 66.91 129.84C72.91 126.96 79.23 125.47 87.52 125.45Z" fill="#F89709"/>
<path d="M229.83 237.22C229.82 243.62 228.28 249.73 226.17 255.72C225.57 257.45 224.89 259.15 224.26 260.88C224 261.59 223.67 261.75 223.06 261.18C220.393 258.66 217.72 256.15 215.04 253.65C214.66 253.3 214.52 252.85 214.42 252.36C213.767 249.1 213.11 245.84 212.45 242.58C212.28 241.75 212.13 240.81 211.15 240.69C210.05 240.56 208.89 240.65 207.97 241.42C207.45 241.85 207.53 242.52 207.6 243.11C207.92 246.117 208.267 249.12 208.64 252.12C208.85 253.83 208.79 253.89 207.06 253.67C205.68 253.49 204.34 253.24 203.03 252.76C202.34 252.5 201.98 252.13 201.91 251.41C201.08 243.64 199.14 236.13 196.8 228.69C196.34 227.22 196.7 225.5 195.28 224.37C192.83 217.15 190.04 210.03 188.35 202.57C186.97 196.52 186.35 190.4 186.4 184.21C186.41 183.52 186.47 182.84 187.16 182.46C187.81 182.1 188.4 182.37 188.94 182.74C195.34 187.17 201.94 191.32 207.81 196.49C214.45 202.34 220.36 208.81 224.57 216.67C227.47 222.08 229.26 227.82 229.67 233.97C229.7 234.53 229.79 235.09 229.82 235.65C229.85 236.17 229.83 236.69 229.83 237.22Z" fill="#F89709"/>
<path d="M162.89 163.9C163.11 158.57 163.02 153.11 162.52 147.67C161.64 138.03 159.39 128.79 154.37 120.38C154.1 119.93 153.78 119.51 153.51 119.06C152.83 117.94 153.35 116.96 154.68 116.92C155.15 116.9 155.65 116.98 156.12 117.09C160.84 118.2 165.32 120 169.67 122.11C181.75 127.97 192.83 135.28 202.22 144.97C205.06 147.91 207.51 151.18 210.05 154.37C210.36 154.75 210.61 155.18 210.71 155.66C210.93 156.69 210.25 157.44 209.2 157.32C208.827 157.267 208.463 157.173 208.11 157.04C201.53 154.76 195.73 156.22 190.65 160.81C187.2 163.92 185.33 167.98 184.03 172.35C183.963 172.603 183.897 172.857 183.83 173.11C183.37 174.81 182.45 175.3 180.81 174.62C178.56 173.69 176.34 172.69 174.12 171.71C171.14 170.39 168.2 168.98 165.17 167.78C163.35 167.06 162.73 165.84 162.89 163.9Z" fill="#F89709"/>
<path d="M136.19 228.04C136.19 238.18 136.19 248.323 136.19 258.47C136.19 258.72 136.29 259.11 135.93 259.08C135.43 259.05 135.61 258.58 135.61 258.28C135.603 253.487 135.603 248.693 135.61 243.9C135.603 234.993 135.61 226.087 135.63 217.18C135.63 215.93 135.42 214.94 134.26 214.22C133.35 213.66 133.27 212.59 133.15 211.62C133.09 211.11 133.12 210.58 133.09 210.05C133.03 209.07 132.47 208.56 131.51 208.5C130.99 208.46 130.46 208.48 129.94 208.48C121.887 208.473 113.833 208.473 105.78 208.48C103.56 208.48 103.27 208.78 103.27 211.01C103.27 212.38 102.99 213.56 101.77 214.45C100.74 215.19 100.64 216.41 100.64 217.6C100.647 226.02 100.65 234.443 100.65 242.87C100.65 250.163 100.647 257.46 100.64 264.76C100.64 265.21 100.87 265.86 100.1 265.88C99.3801 265.91 99.1801 265.35 99.1601 264.73C99.1467 264.323 99.1434 263.913 99.1501 263.5C99.1634 245.46 99.1734 227.417 99.1801 209.37C99.1801 208.31 99.3701 207.22 98.0501 206.58C97.4901 206.31 98.2101 206 98.4401 205.84C100.713 204.32 102.99 202.807 105.27 201.3C111.23 197.35 117.33 193.59 122.74 188.88C129.32 183.14 133.86 176.19 135.22 167.41C135.31 166.86 135.34 166.29 135.45 165.74C135.73 164.29 136.28 163.8 137.76 163.88C140.34 164.02 142.87 164.56 145.39 165.12C149.2 165.97 152.91 167.12 156.6 168.37C158.65 169.06 159.47 170.33 159.24 172.49C158.58 178.54 157.9 184.6 157.25 190.65C157.14 191.71 156.72 192.11 155.61 192.09C152.13 192.02 148.65 192.08 145.17 192.05C144.2 192.04 143.48 192.3 143.14 193.27C142.95 193.84 142.46 194.04 141.94 194.17C140.85 194.46 139.78 194.77 138.68 195.01C136.66 195.44 136.15 196.05 136.14 198.17C136.147 200.603 136.15 203.037 136.15 205.47C136.15 212.99 136.15 220.513 136.15 228.04C136.163 228.04 136.177 228.04 136.19 228.04Z" fill="#F89709"/>
<path d="M232.33 218.47C232.49 221.66 231.97 224.88 231.63 228.11C231.57 228.69 231.39 229.26 230.69 229.33C229.9 229.4 229.72 228.77 229.54 228.19C228.29 223.99 227.21 219.75 225.38 215.75C221.53 207.34 215.94 200.25 209.12 194.08C203 188.54 196.25 183.81 189.37 179.27C186.79 177.57 186.25 176.4 187.07 173.42C188.51 168.18 191.27 163.69 195.7 160.51C202.73 155.49 212.16 157.28 216.92 164.48C219.8 168.84 221.81 173.66 223.78 178.47C227.68 188.05 230.287 197.967 231.6 208.22C232.04 211.6 232.46 214.98 232.33 218.47Z" fill="#F89709"/>
<path d="M166.59 229.63C166.59 219.263 166.59 208.897 166.59 198.53C166.59 195.91 166.25 195.63 163.75 194.94C160.96 194.17 161.27 194.74 161.55 191.78C162.08 186.23 162.75 180.7 162.76 175.12C162.753 174.56 162.753 173.997 162.76 173.43C162.83 171.55 163.75 170.9 165.48 171.64C169.02 173.17 172.53 174.77 176.04 176.35C177.31 176.91 178.53 177.59 179.84 178.04C182.12 178.82 182.89 180.45 182.9 182.7C182.927 186.253 183.13 189.8 183.51 193.34C184.08 198.83 185.4 204.16 186.87 209.46C188.22 214.29 189.88 219.02 191.62 223.72C192.09 224.99 192.05 225.05 190.71 225.05C183.776 225.057 176.846 225.06 169.92 225.06C167.48 225.06 167.05 225.63 167.69 227.96C167.9 228.73 167.57 229.5 167.58 230.28C167.606 240.54 167.606 250.797 167.58 261.05C167.57 261.63 167.98 262.69 167.04 262.68C166.24 262.68 166.6 261.64 166.6 261.08C166.58 250.593 166.573 240.11 166.58 229.63C166.58 229.63 166.583 229.63 166.59 229.63Z" fill="#F89709"/>
<path d="M12.15 260C7.15001 246.76 4.40001 232.42 4.40001 217.45C4.40001 150.91 58.53 96.78 125.07 96.78C191.61 96.78 245.74 150.91 245.74 217.45C245.74 232.42 242.99 246.76 237.99 260H242.68C247.5 246.71 250.14 232.38 250.14 217.45C250.14 148.49 194.03 92.38 125.07 92.38C56.11 92.38 0 148.49 0 217.45C0 232.38 2.64001 246.71 7.46001 260H12.15Z" fill="#F89709"/>
<path d="M118.98 130.24L135.74 83.31L90.7301 47.88L146.76 48.36L163.77 0H158.73L137.66 33.99H49.55L121.89 84.75L90.7301 166.63L162.57 110.95L200.59 130.24L163.77 98.63L118.98 130.24Z" fill="#F89709"/>
<path d="M152.02 56.98L118.98 56.5L147.23 78.6L133.83 110.95L163.77 87.14L191.76 108.69L176.67 76.13L207.57 56.5H172.61L163.77 22.98L152.02 56.98Z" fill="#F89709"/>
<path d="M42.1 326.42L43.34 314.4H50.07L51.2 327.43H59.96C60.08 327.423 60.19 327.403 60.29 327.37V327.43H75C76.8733 327.43 78.5766 327.3 80.11 327.04C81.6433 326.773 82.9533 326.247 84.04 325.46C85.1266 324.673 85.97 323.627 86.57 322.32C87.17 321.013 87.47 319.273 87.47 317.1V302.72C87.47 299.653 87.4333 297.24 87.36 295.48C87.28 293.72 86.7533 292.203 85.78 290.93C85.18 290.257 84.45 289.697 83.59 289.25C82.73 288.797 81.44 288.383 79.72 288.01C80.1666 287.937 80.71 287.827 81.35 287.68C81.9833 287.527 82.6366 287.243 83.31 286.83C83.9833 286.423 84.6033 285.843 85.17 285.09C85.73 284.343 86.16 283.333 86.46 282.06C86.5333 281.613 86.59 280.883 86.63 279.87C86.6633 278.863 86.7 277.833 86.74 276.78C86.7733 275.733 86.79 274.387 86.79 272.74V261.96C86.79 260.013 86.6233 258.16 86.29 256.4C85.95 254.64 84.92 253.123 83.2 251.85C81.6266 250.583 79.98 249.873 78.26 249.72C76.54 249.573 74.78 249.497 72.98 249.49H60.29V319.3L52.32 249.49H42.44C41.6866 249.49 41.3133 249.83 41.32 250.51L32.22 327.43H41.09C41.7633 327.43 42.1 327.093 42.1 326.42ZM70.06 257.92H71.18C73.1266 257.92 74.5866 258.257 75.56 258.93C76.5333 259.603 77.02 261.137 77.02 263.53V278.35C77.02 280.45 76.61 281.893 75.79 282.68C74.9633 283.467 73.4666 283.897 71.3 283.97H70.06V257.92ZM70.06 292.73H71.52C72.4933 292.73 73.3733 292.787 74.16 292.9C74.9466 293.013 75.62 293.26 76.18 293.64C76.74 294.013 77.1533 294.613 77.42 295.44C77.68 296.267 77.81 297.357 77.81 298.71V312.81C77.81 314.917 77.4166 316.477 76.63 317.49C75.8433 318.503 74.1033 319.01 71.41 319.01H70.06V292.73ZM46.93 269.15L49.74 304.75H44.23L46.93 269.15Z" fill="white"/>
<path d="M98.9199 326.31V250.62C98.9199 249.873 98.5466 249.497 97.7999 249.49H89.1499V327.43H97.7999C98.5466 327.43 98.9199 327.057 98.9199 326.31Z" fill="white"/>
<path d="M118.29 327.2C119.677 327.053 121.043 326.567 122.39 325.74C123.437 325.147 124.503 324.1 125.59 322.6C126.677 321.1 127.293 318.93 127.44 316.09V263.42C127.44 261.247 127.253 259.207 126.88 257.3C126.507 255.393 125.383 253.653 123.51 252.08C122.09 250.88 120.707 250.15 119.36 249.89C118.013 249.63 116.963 249.497 116.21 249.49H100.94V327.43H113.97C115.463 327.43 116.903 327.353 118.29 327.2ZM111.4 319.01H110.71V257.92H111.85C112.61 257.92 113.39 257.92 114.19 257.92C114.99 257.92 115.693 258.22 116.3 258.82C117.06 259.413 117.48 260.103 117.56 260.89C117.633 261.677 117.67 262.483 117.67 263.31V313.28C117.67 314.627 117.5 315.807 117.16 316.82C116.82 317.827 115.85 318.517 114.25 318.89C113.79 318.97 113.313 319.01 112.82 319.01C112.327 319.01 111.853 319.01 111.4 319.01Z" fill="white"/>
<path d="M142.88 328.55C146.793 328.55 149.97 327.54 152.41 325.52C154.857 323.5 156.153 320.393 156.3 316.2V250.62C156.3 249.873 155.923 249.497 155.17 249.49H146.53V314.96C146.53 316.233 146.347 317.413 145.98 318.5C145.613 319.587 144.58 320.13 142.88 320.13C141.633 320.13 140.75 319.68 140.23 318.78C139.717 317.88 139.423 316.647 139.35 315.08V299.47H130.6C129.92 299.47 129.58 299.843 129.58 300.59V316.2C129.58 320.32 130.727 323.407 133.02 325.46C135.307 327.52 138.593 328.55 142.88 328.55Z" fill="white"/>
<path d="M166.97 326.42L168.21 314.4H174.94L176.07 327.43H184.83C185.203 327.43 185.5 327.317 185.72 327.09V327.43H193.92C194.666 327.43 195.04 327.057 195.04 326.31L194.48 271.84L201.29 326.42C201.436 327.093 201.81 327.43 202.41 327.43H213.46V249.49H205.49C204.737 249.497 204.363 249.873 204.37 250.62L205.04 304.41L197.96 249.49H186.85C186.097 249.497 185.72 249.873 185.72 250.62V324.23L177.19 249.49H167.31C166.557 249.49 166.18 249.83 166.18 250.51L157.09 327.43H165.96C166.633 327.43 166.97 327.093 166.97 326.42ZM171.8 269.15L174.61 304.74H169.1L171.8 269.15Z" fill="white"/>
<path d="M40.33 329.86C39.5834 329.86 39.21 330.197 39.21 330.87L31.46 396.39V383.09C31.46 380.023 31.4234 377.61 31.35 375.85C31.2767 374.09 30.7534 372.573 29.78 371.3C29.18 370.627 28.45 370.063 27.59 369.61C26.73 369.163 25.4367 368.753 23.71 368.38C24.1634 368.307 24.7067 368.193 25.34 368.04C25.98 367.893 26.6367 367.613 27.31 367.2C27.9834 366.787 28.6 366.207 29.16 365.46C29.72 364.713 30.15 363.703 30.45 362.43C30.5234 361.977 30.58 361.247 30.62 360.24C30.6534 359.227 30.69 358.197 30.73 357.15C30.77 356.103 30.79 354.757 30.79 353.11V342.32C30.79 340.38 30.62 338.53 30.28 336.77C29.9467 335.01 28.9167 333.493 27.19 332.22C25.6234 330.947 23.9767 330.233 22.25 330.08C20.53 329.933 18.7734 329.86 16.98 329.86H4.29004V407.79H19C20.8667 407.79 22.57 407.66 24.11 407.4C25.6434 407.14 26.9534 406.617 28.04 405.83C29.12 405.043 29.96 403.993 30.56 402.68C30.6467 402.487 30.7234 402.283 30.79 402.07L30.11 407.79H38.99C39.6634 407.79 40 407.453 40 406.78L41.23 394.77H47.97L49.09 407.79H57.85C58.2234 407.79 58.5234 407.68 58.75 407.46C58.9767 407.233 59.05 406.933 58.97 406.56L50.22 329.86H40.33ZM14.05 338.28H15.17C17.1167 338.28 18.5767 338.617 19.55 339.29C20.5234 339.963 21.01 341.5 21.01 343.9V358.72C21.01 360.82 20.6 362.26 19.78 363.04C18.9534 363.827 17.4534 364.257 15.28 364.33H14.05V338.28ZM21.8 393.17C21.8 395.277 21.4067 396.837 20.62 397.85C19.8334 398.863 18.0934 399.37 15.4 399.37H14.05V373.1H15.51C16.4834 373.1 17.3634 373.157 18.15 373.27C18.9367 373.383 19.61 373.627 20.17 374C20.73 374.373 21.14 374.973 21.4 375.8C21.6667 376.633 21.8 377.723 21.8 379.07V393.17ZM42.12 385.12L44.82 349.52L47.62 385.12H42.12Z" fill="white"/>
<path d="M84.24 397.37V383.58C84.24 380.813 83.83 378.233 83.01 375.84C82.1834 373.447 80.72 371.053 78.62 368.66C77.9467 367.913 77.0134 367.073 75.82 366.14C74.62 365.207 73.44 364.16 72.28 363C71.12 361.847 70.09 360.56 69.19 359.14C68.29 357.713 67.84 356.143 67.84 354.43V341.31C67.8467 339.59 68.1834 338.487 68.85 338C69.5234 337.513 70.2734 337.27 71.1 337.27C72.3734 337.27 73.2334 337.66 73.68 338.44C74.1334 339.22 74.36 340.057 74.36 340.95V353.79C74.36 354.53 74.7334 354.9 75.48 354.9H84.24V339.4C84.0867 335.813 82.74 333.157 80.2 331.43C77.6534 329.71 74.7334 328.85 71.44 328.85C67.3934 328.85 64.23 329.823 61.95 331.77C59.6634 333.717 58.52 336.6 58.52 340.42V356.25C58.52 357.97 58.82 359.56 59.42 361.02C60.02 362.48 60.8267 363.883 61.84 365.23C62.8467 366.577 63.9867 367.87 65.26 369.11C66.5334 370.343 67.8434 371.56 69.19 372.76C71.1367 374.48 72.56 376.35 73.46 378.37C74.36 380.39 74.81 382.787 74.81 385.56V396.45C74.81 398.25 74.4734 399.373 73.8 399.82C73.1267 400.267 72.3767 400.49 71.55 400.49C70.5034 400.497 69.7 400.143 69.14 399.43C68.5733 398.717 68.29 397.873 68.29 396.9V380.28C68.29 379.533 67.9167 379.16 67.17 379.16H58.52V398.25C58.6734 401.843 59.9834 404.52 62.45 406.28C64.9234 408.04 67.8434 408.92 71.21 408.92C75.33 408.913 78.53 407.96 80.81 406.06C83.0967 404.153 84.24 401.257 84.24 397.37Z" fill="white"/>
<path d="M230.11 329.86H220.34V404.59L211.8 329.86H201.92C201.173 329.86 200.8 330.197 200.8 330.87L193.05 396.38V383.09C193.05 380.023 193.013 377.61 192.94 375.85C192.86 374.09 192.337 372.573 191.37 371.3C190.77 370.627 190.04 370.063 189.18 369.61C188.313 369.163 187.02 368.753 185.3 368.38C185.753 368.307 186.297 368.193 186.93 368.04C187.563 367.893 188.22 367.613 188.9 367.2C189.573 366.787 190.19 366.207 190.75 365.46C191.31 364.713 191.74 363.703 192.04 362.43C192.113 361.977 192.17 361.247 192.21 360.24C192.243 359.227 192.28 358.197 192.32 357.15C192.36 356.103 192.38 354.757 192.38 353.11V342.32C192.38 340.38 192.21 338.53 191.87 336.77C191.537 335.01 190.507 333.493 188.78 332.22C187.207 330.947 185.56 330.233 183.84 330.08C182.12 329.933 180.36 329.86 178.56 329.86H167H165.87H137.58H136.79H118.26H118.15H108.16L96.6999 361.86V330.98C96.6999 330.233 96.3266 329.86 95.5799 329.86H86.9299V407.79H95.5799C96.3266 407.79 96.6999 407.417 96.6999 406.67V377.81L107.82 407.79H117.93L103.89 369.84L118.15 330.17V407.79H137.13C137.877 407.79 138.25 407.417 138.25 406.67V399.37H127.92V373.88H135.66C136.413 373.88 136.79 373.5 136.79 372.74V365.46H127.92V338.28H136.44C136.753 338.273 137 338.203 137.18 338.07C137.36 338.203 137.603 338.273 137.91 338.28H147.01V407.79H156.78V338.28H165.87V407.79H180.59C182.457 407.79 184.157 407.66 185.69 407.4C187.23 407.14 188.543 406.617 189.63 405.83C190.71 405.043 191.55 403.993 192.15 402.68C192.23 402.487 192.307 402.283 192.38 402.07L191.7 407.79H200.57C201.243 407.79 201.58 407.453 201.58 406.78L202.82 394.77H209.56L210.68 407.79H219.44C219.813 407.79 220.113 407.68 220.34 407.46V407.79H239.2C239.953 407.79 240.33 407.417 240.33 406.67V399.37H230.11V329.86ZM175.64 338.28H176.77C178.717 338.28 180.177 338.617 181.15 339.29C182.123 339.97 182.61 341.507 182.61 343.9V358.72C182.61 360.82 182.197 362.263 181.37 363.05C180.543 363.837 179.047 364.267 176.88 364.34H175.64V338.28ZM183.39 393.16C183.39 395.267 182.997 396.827 182.21 397.84C181.423 398.86 179.683 399.37 176.99 399.37H175.64V373.09H177.1C178.073 373.09 178.953 373.147 179.74 373.26C180.527 373.373 181.2 373.617 181.76 373.99C182.327 374.37 182.74 374.973 183 375.8C183.26 376.627 183.39 377.717 183.39 379.07V393.16ZM203.72 385.1L206.41 349.5L209.22 385.1H203.72Z" fill="white"/>
<path d="M250.54 399.37V329.86H240.77V407.79H259.64C260.387 407.79 260.76 407.417 260.76 406.67V399.37H250.54Z" fill="white"/>
<path d="M93.18 409.24C88.9133 409.24 85.6 410.343 83.24 412.55C80.8866 414.763 79.71 417.89 79.71 421.93V476.95C79.8566 481.443 81.1266 484.627 83.52 486.5C85.92 488.373 89.14 489.31 93.18 489.31C97.3 489.31 100.537 488.243 102.89 486.11C105.25 483.977 106.43 480.923 106.43 476.95V461.79C106.43 460.743 106.057 460.22 105.31 460.22H96.66V475.83C96.5866 477.477 96.2866 478.73 95.76 479.59C95.24 480.457 94.3433 480.887 93.07 480.88C91.4233 480.887 90.4133 480.347 90.04 479.26C89.6666 478.173 89.48 476.997 89.48 475.73V422.93C89.4 421.59 89.6233 420.377 90.15 419.29C90.67 418.203 91.68 417.66 93.18 417.66C94.0066 417.66 94.6433 417.83 95.09 418.17C95.5366 418.503 95.8733 418.933 96.1 419.46C96.3266 419.987 96.4766 420.567 96.55 421.2C96.6233 421.84 96.66 422.457 96.66 423.05V438.66C96.66 439.033 96.7533 439.39 96.94 439.73C97.1266 440.063 97.41 440.23 97.79 440.23H106.43V422.38C106.203 413.62 101.787 409.24 93.18 409.24Z" fill="white"/>
<path d="M117.66 410.25H107.89V488.18H126.76C127.507 488.187 127.88 487.813 127.88 487.06V479.76H117.66V410.25Z" fill="white"/>
<path d="M154.27 410.25H145.62V475.72C145.62 476.993 145.433 478.173 145.06 479.26C144.687 480.347 143.677 480.887 142.03 480.88C139.63 480.88 138.433 479.197 138.44 475.83V411.37C138.433 410.623 138.057 410.25 137.31 410.25H128.67V476.95C128.67 481.07 129.81 484.16 132.09 486.22C134.377 488.28 137.653 489.31 141.92 489.31C145.96 489.31 149.177 488.373 151.57 486.5C153.97 484.627 155.243 481.443 155.39 476.95V411.37C155.39 410.623 155.017 410.25 154.27 410.25Z" fill="white"/>
<path d="M182.23 451.69C181.63 451.017 180.9 450.453 180.04 450C179.18 449.553 177.89 449.143 176.17 448.77C176.617 448.697 177.157 448.583 177.79 448.43C178.43 448.283 179.087 448.003 179.76 447.59C180.433 447.177 181.05 446.597 181.61 445.85C182.177 445.103 182.607 444.093 182.9 442.82C182.98 442.367 183.037 441.637 183.07 440.63C183.11 439.617 183.15 438.587 183.19 437.54C183.223 436.493 183.24 435.147 183.24 433.5V422.72C183.24 420.773 183.073 418.92 182.74 417.16C182.4 415.4 181.37 413.883 179.65 412.61C178.077 411.337 176.43 410.627 174.71 410.48C172.983 410.327 171.223 410.25 169.43 410.25H156.74V488.18H171.45C173.323 488.187 175.027 488.057 176.56 487.79C178.093 487.53 179.403 487.007 180.49 486.22C181.577 485.433 182.42 484.383 183.02 483.07C183.613 481.763 183.913 480.023 183.92 477.85V463.48C183.913 460.413 183.873 458 183.8 456.24C183.727 454.48 183.203 452.963 182.23 451.69ZM166.51 418.67H167.63C169.577 418.67 171.037 419.007 172.01 419.68C172.983 420.36 173.47 421.897 173.47 424.29V439.11C173.47 441.21 173.06 442.65 172.24 443.43C171.413 444.217 169.913 444.65 167.74 444.73H166.51V418.67ZM174.26 473.55C174.26 475.657 173.867 477.217 173.08 478.23C172.293 479.243 170.553 479.753 167.86 479.76H166.51V453.48H167.97C168.943 453.48 169.823 453.537 170.61 453.65C171.397 453.763 172.07 454.007 172.63 454.38C173.19 454.753 173.6 455.353 173.86 456.18C174.127 457.013 174.26 458.107 174.26 459.46V473.55Z" fill="white"/>
</svg>
